<svg xmlns="http://www.w3.org/2000/svg" width="1200" height="630" viewBox="0 0 1200 630">
  <defs>
    <linearGradient id="bg" x1="0" y1="0" x2="1" y2="1">
      <stop offset="0" stop-color="#060913"/>
      <stop offset="0.5" stop-color="#0c1226"/>
      <stop offset="1" stop-color="#0a0e1c"/>
    </linearGradient>
    <radialGradient id="glow" cx="0.5" cy="0.42" r="0.55">
      <stop offset="0" stop-color="#06b6d4" stop-opacity="0.28"/>
      <stop offset="1" stop-color="#8b5cf6" stop-opacity="0"/>
    </radialGradient>
    <linearGradient id="g" x1="0" y1="0" x2="1" y2="1">
      <stop offset="0" stop-color="#06b6d4"/>
      <stop offset="1" stop-color="#8b5cf6"/>
    </linearGradient>
  </defs>
  <rect width="1200" height="630" fill="url(#bg)"/>
  <rect width="1200" height="630" fill="url(#glow)"/>
  <rect x="40" y="40" width="1120" height="550" rx="28" fill="none" stroke="url(#g)" stroke-opacity="0.35" stroke-width="2"/>
  <g transform="translate(560,285)">
    <rect x="-150" y="-120" width="300" height="240" rx="56" fill="#0a0e1c" stroke="url(#g)" stroke-width="6"/>
    <path d="M0 -72c-34 0-56 24-56 54 0 17 8 31 19 41-3 9-9 18-16 26-2 3 1 8 5 7 17-4 32-12 44-24 2 0 7 .1 10 .2 26-2 47-22 54-46 2-8 3-17 4-26 1-13-4-27-14-36C38 -63 18 -72 0 -72z" fill="none" stroke="url(#g)" stroke-width="11" stroke-linejoin="round"/>
    <circle cx="-30" cy="-46" r="10" fill="#06b6d4"/>
    <circle cx="0" cy="-58" r="10" fill="#8b5cf6"/>
    <circle cx="30" cy="-46" r="10" fill="#06b6d4"/>
  </g>
  <text x="600" y="540" text-anchor="middle" font-family="DejaVu Sans, sans-serif" font-size="64" font-weight="bold" fill="#f1f5f9">Ghennai</text>
  <text x="600" y="586" text-anchor="middle" font-family="DejaVu Sans, sans-serif" font-size="28" fill="#67e8f9">وكيلك الذكي الأول — مجاني 100% ومحلي</text>
</svg>